<svg width="69" height="40" viewBox="0 0 69 40" fill="none" xmlns="http://www.w3.org/2000/svg">
<path d="M69 38.9246C67.9958 39.3041 66.8872 39.3032 65.8836 38.9222C64.8799 38.5412 64.0505 37.8064 63.5519 36.8565L53.6331 23.1524L52.1956 21.2366L40.687 36.8737C40.2183 37.7838 39.4339 38.4922 38.4805 38.8665C37.527 39.2408 36.4697 39.2553 35.5063 38.9073L50.3355 19.0306L36.5413 1.07542C37.5331 0.718311 38.6179 0.713578 39.6128 1.06201C40.6078 1.41045 41.4521 2.09077 42.0038 2.98842L52.2848 16.8619L62.6233 3.04586C63.0955 2.15194 63.8801 1.46258 64.8279 1.10882C65.7757 0.755062 66.8205 0.761574 67.7637 1.12712L62.4105 8.22474L55.1598 17.6547C54.9584 17.8342 54.7973 18.0541 54.6869 18.3001C54.5766 18.5462 54.5196 18.8127 54.5196 19.0823C54.5196 19.3519 54.5766 19.6184 54.6869 19.8644C54.7973 20.1104 54.9584 20.3304 55.1598 20.5098L68.9712 38.9274L69 38.9246ZM0.00578449 18.7836L1.21328 12.8234C4.53103 1.03808 18.055 -3.86505 27.3585 3.43076C32.8066 7.70771 34.1665 13.7627 33.8991 20.5874H3.20853C2.71116 32.7748 11.5144 40.1338 22.77 36.3739C24.5947 35.7177 26.2279 34.6196 27.5234 33.1779C28.8189 31.7362 29.7363 29.9959 30.1933 28.113C30.7884 26.2 31.7688 25.8725 33.5685 26.424C33.2686 28.7575 32.443 30.9926 31.1537 32.9613C29.8645 34.93 28.1452 36.5809 26.1251 37.79C22.7885 39.6135 18.9602 40.3362 15.1876 39.8549C11.415 39.3735 7.89133 37.7128 5.12041 35.1101C2.38062 32.0291 0.724753 28.1374 0.405409 24.0285C0.405409 23.3535 0.175409 22.7216 0.0201595 22.1155C0.00616407 21.0059 -0.000544401 19.8961 3.44893e-05 18.7864L0.00578449 18.7836ZM3.24591 17.9621H31.0011C30.8286 9.12666 25.2483 2.85916 17.8049 2.80171C9.51915 2.68682 3.59091 8.81644 3.22578 17.9218L3.24591 17.9621Z" fill="white"/>
</svg>
