<svg width="43" height="62" viewBox="0 0 43 62" fill="none" xmlns="http://www.w3.org/2000/svg">
<path d="M31.4285 23.2009H19.6045V0H31.4285C37.8096 0 43 5.20283 43 11.5992C43 17.9955 37.8096 23.2009 31.4285 23.2009ZM23.3955 19.4008H31.4285C35.7195 19.4008 39.209 15.9004 39.209 11.6018C39.209 7.30308 35.7169 3.80267 31.4285 3.80267H23.3955V19.4008ZM23.3955 23.2009H11.574C5.19299 23.2009 0.00257698 17.9981 0.00257698 11.6018C0.00257698 5.20542 5.19299 0 11.574 0H23.3981V23.2009H23.3955ZM11.574 3.80008C7.28307 3.80008 3.79359 7.3005 3.79359 11.5992C3.79359 15.8978 7.28307 19.4008 11.574 19.4008H19.6071V3.80008H11.574ZM23.3955 42.5992H11.574C5.19299 42.5992 0.00257698 37.3963 0.00257698 31C0.00257698 24.6037 5.19299 19.4008 11.574 19.4008H23.3981V42.5992H23.3955ZM11.574 23.2009C7.28307 23.2009 3.79359 26.7013 3.79359 31C3.79359 35.2987 7.28564 38.7991 11.574 38.7991H19.6071V23.2009H11.574ZM11.6359 62C5.22134 62 0 56.7972 0 50.4008C0 44.0045 5.19041 38.8017 11.5715 38.8017H23.3955V50.2742C23.3955 56.7403 18.12 62 11.6359 62ZM11.574 42.5992C9.51138 42.6019 7.53397 43.4245 6.07544 44.8865C4.61691 46.3485 3.79631 48.3306 3.79359 50.3983C3.79359 54.6995 7.31142 58.1973 11.6385 58.1973C16.0325 58.1973 19.6096 54.6427 19.6096 50.2717V42.5992H11.574ZM31.4285 42.5992H31.176C24.7949 42.5992 19.6045 37.3963 19.6045 31C19.6045 24.6037 24.7949 19.4008 31.176 19.4008H31.4285C37.8096 19.4008 43 24.6037 43 31C43 37.3963 37.8096 42.5992 31.4285 42.5992ZM31.1785 23.2009C26.8876 23.2009 23.3981 26.7013 23.3981 31C23.3981 35.2987 26.8901 38.7991 31.1785 38.7991H31.4311C35.7221 38.7991 39.2116 35.2987 39.2116 31C39.2116 26.7013 35.7169 23.2009 31.4285 23.2009H31.1785Z" fill="white"/>
</svg>
