<svg width="37" height="34" viewBox="0 0 37 34" fill="none" xmlns="http://www.w3.org/2000/svg">
<path d="M18.5 0.420654C8.27875 0.420654 0 8.0324 0 17.4207C0 24.9332 5.30025 31.304 12.6494 33.5494C13.5744 33.7095 13.9135 33.1839 13.9135 32.732C13.9135 32.3282 13.8981 31.2587 13.8904 29.842C8.74433 30.8677 7.659 27.5612 7.659 27.5612C6.81725 25.5991 5.60087 25.0749 5.60087 25.0749C3.92508 24.0209 5.73037 24.0422 5.73037 24.0422C7.58808 24.1612 8.56396 25.7932 8.56396 25.7932C10.2135 28.3927 12.8945 27.6419 13.9521 27.207C14.1186 26.1077 14.595 25.3582 15.1238 24.9332C11.0152 24.5082 6.697 23.0462 6.697 16.5324C6.697 14.6766 7.41387 13.1607 8.60096 11.9707C8.39283 11.5415 7.76846 9.81316 8.76283 7.47141C8.76283 7.47141 10.3122 7.01524 13.8503 9.21391C15.3303 8.83566 16.9028 8.64865 18.4753 8.64015C20.0478 8.64865 21.6203 8.83566 23.1003 9.21391C26.6153 7.01524 28.1647 7.47141 28.1647 7.47141C29.1591 9.81316 28.5347 11.5415 28.3497 11.9707C29.5291 13.1607 30.246 14.6766 30.246 16.5324C30.246 23.0632 25.9216 24.5012 21.8053 24.9191C22.4528 25.4291 23.0541 26.4717 23.0541 28.0641C23.0541 30.3392 23.031 32.1667 23.031 32.7192C23.031 33.1655 23.3547 33.6967 24.3028 33.5267C31.7044 31.2969 37 24.9219 37 17.4207C37 8.0324 28.7166 0.420654 18.5 0.420654Z" fill="#607396"/>
</svg>
