<svg width="62" height="62" viewBox="0 0 62 62" fill="none" xmlns="http://www.w3.org/2000/svg">
<path d="M0 0H62V62H0V0ZM56.9212 47.213C56.4691 44.3842 54.6272 42.0076 49.1634 39.7911C47.2621 38.8998 45.1489 38.2798 44.5212 36.8461C44.2861 35.9936 44.2499 35.5286 44.4023 35.0248C44.7898 33.356 46.7661 32.8548 48.3161 33.3198C49.3236 33.6298 50.2536 34.4048 50.8374 35.6448C53.5086 33.8985 53.5086 33.8985 55.3712 32.7386C54.6737 31.6536 54.3275 31.186 53.8573 30.7236C52.2298 28.9023 50.0624 27.9723 46.5362 28.0524L44.7149 28.2823C42.9686 28.7086 41.3049 29.6386 40.2974 30.8786C37.3524 34.2137 38.2023 40.0262 41.7673 42.4287C45.2936 45.0637 50.4499 45.6423 51.1087 48.1249C51.7287 51.1474 48.8612 52.1162 46.0298 51.7674C43.9348 51.3024 42.7748 50.2536 41.4961 48.3161L36.7686 51.0312C37.3111 52.2712 37.9311 52.8111 38.8611 53.8961C43.3561 58.4324 54.5936 58.1999 56.6112 51.3024C56.6861 51.0699 57.2312 49.4812 56.8023 47.0399L56.9212 47.213ZM33.7151 28.4967H27.9078C27.9078 33.5032 27.8845 38.4787 27.8845 43.493C27.8845 46.6757 28.0472 49.5974 27.528 50.4964C26.6755 52.2763 24.4797 52.049 23.4825 51.7364C22.4595 51.2301 21.9402 50.5326 21.3383 49.5277C21.1756 49.2564 21.0542 49.0213 21.0103 49.0213L16.2957 51.9276C17.0836 53.5551 18.2332 54.9552 19.716 55.8465C21.9247 57.164 24.893 57.5903 28.0007 56.8928C30.0235 56.3089 31.7672 55.1077 32.6792 53.2477C33.9967 50.8452 33.7177 47.9002 33.7047 44.6038C33.7357 39.2977 33.7047 33.9889 33.7047 28.6414L33.7151 28.4967Z" fill="white"/>
</svg>
