<svg width="55" height="62" viewBox="0 0 55 62" fill="none" xmlns="http://www.w3.org/2000/svg">
<path d="M27.4961 62C26.6666 62 25.8396 61.783 25.1135 61.3619L17.5262 56.8747C16.3943 56.2418 16.9473 56.0171 17.3195 55.8853C18.8312 55.3609 19.1362 55.2395 20.7513 54.325C20.9193 54.2294 21.1415 54.2656 21.3147 54.3689L27.1447 57.828C27.3566 57.9442 27.6538 57.9442 27.8476 57.828L50.5758 44.7151C50.7877 44.5937 50.9221 44.3509 50.9221 44.1003V17.8797C50.9221 17.624 50.7851 17.3837 50.5681 17.2545L27.8502 4.15202C27.6408 4.0306 27.3617 4.0306 27.1498 4.15202L4.43711 17.2571C4.21745 17.3837 4.0779 17.6317 4.0779 17.8797V44.1003C4.0779 44.3509 4.21745 44.5885 4.43711 44.7073L10.6625 48.3033C14.0401 49.9928 16.11 48.0036 16.11 46.0042V20.1169C16.11 19.75 16.4046 19.4633 16.7716 19.4633H19.653C20.0122 19.4633 20.312 19.7526 20.312 20.1169V46.0042C20.312 50.512 17.857 53.0953 13.5827 53.0953C12.2699 53.0953 11.2336 53.0953 8.34704 51.6719L2.38265 48.2439C0.909646 47.394 0 45.8027 0 44.1003V17.8797C0 16.1773 0.91223 14.586 2.38265 13.7387L25.1109 0.610306C26.5503 -0.203435 28.46 -0.203435 29.8865 0.610306L52.6122 13.7387C54.0852 14.5886 55 16.1773 55 17.8797V44.1003C55 45.8027 54.0852 47.3888 52.6122 48.2439L29.8865 61.3619C29.1629 61.783 28.3386 62 27.4961 62ZM45.8467 36.1489C45.8467 31.2406 42.5285 29.9334 35.5434 29.0112C28.4859 28.0786 27.7675 27.5955 27.7675 25.9448C27.7675 24.5808 28.3748 22.7596 33.6026 22.7596C38.2723 22.7596 39.9934 23.7645 40.7015 26.9109C40.7635 27.208 41.0349 27.425 41.3398 27.425H44.2884C44.4719 27.425 44.645 27.3449 44.7691 27.2158C44.8931 27.0763 44.9603 26.898 44.9422 26.7095C44.4848 21.2897 40.8824 18.7632 33.6026 18.7632C27.1214 18.7632 23.2554 21.4963 23.2554 26.0817C23.2554 31.0546 27.1007 32.4289 33.321 33.0437C40.7635 33.7722 41.3398 34.8598 41.3398 36.3219C41.3398 38.8613 39.3009 39.9437 34.5123 39.9437C28.4988 39.9437 27.1757 38.4351 26.7312 35.4436C26.6795 35.1233 26.4056 34.8882 26.0774 34.8882H23.1391C22.7748 34.8882 22.4827 35.1775 22.4827 35.5418C22.4827 39.3702 24.5656 43.9324 34.5123 43.9324C41.7171 43.9349 45.8467 41.1011 45.8467 36.1489Z" fill="white"/>
</svg>
