<svg width="91" height="62" viewBox="0 0 91 62" fill="none" xmlns="http://www.w3.org/2000/svg">
<path d="M62.2023 6.277C61.7663 6.277 61.4705 6.33026 61.1634 6.40254V6.452H61.2165C61.4212 6.84766 61.77 7.13679 62.0279 7.4906C62.2326 7.89767 62.407 8.30474 62.6118 8.70801L62.6649 8.65094C63.0213 8.39985 63.1957 7.99658 63.1957 7.38407C63.044 7.20527 63.0213 7.02646 62.8924 6.85146C62.7407 6.59657 62.4146 6.47102 62.2099 6.26939L62.2023 6.277ZM21.8779 56.4722H18.363C18.2642 50.8675 17.9226 45.2698 17.3393 39.6948H17.309L11.9627 56.4722H9.28958L3.98125 39.6948H3.94333C3.52812 45.2785 3.28155 50.8735 3.20396 56.4722H0C0.208542 48.9928 0.728 41.9775 1.55458 35.4339H5.915L10.9769 50.895H11.0072L16.1146 35.4339H20.2665C21.184 43.0998 21.7225 50.1189 21.8893 56.4722H21.8779ZM37.109 40.9503C35.6758 48.7303 33.7875 54.3912 31.4519 57.9179C29.6243 60.6418 27.6223 62 25.4497 62C24.8695 62 24.1605 61.825 23.3036 61.475V59.5956C23.7207 59.6603 24.2136 59.6945 24.7672 59.6945C25.7833 59.6945 26.5985 59.4092 27.2204 58.85C27.9673 58.1652 28.3389 57.3967 28.3389 56.5483C28.3389 55.9586 28.047 54.7602 27.4668 52.9569L23.6221 40.9503H27.0725L29.829 49.9286C30.4509 51.9678 30.7125 53.3906 30.6063 54.201C32.123 50.1531 33.1771 45.7286 33.7724 40.9503H37.109ZM83.8413 56.4722H73.8693V35.4339H77.2249V53.8852H83.8413V56.4722ZM71.253 56.9858L67.4007 55.0836C67.7419 54.7945 68.0718 54.4825 68.3675 54.1325C70.0093 52.2075 70.8245 49.3466 70.8245 45.5612C70.8245 38.5992 68.1021 35.1143 62.6535 35.1143C59.9842 35.1143 57.8987 35.9969 56.3972 37.766C54.7668 39.6986 53.9478 42.5443 53.9478 46.3069C53.9478 50.0047 54.6683 52.7211 56.1243 54.4483C57.4513 56.0081 59.4495 56.788 62.1265 56.788C63.1275 56.788 64.045 56.6624 64.8754 56.4151L69.8994 59.3521L71.2644 56.9858H71.253ZM58.7708 52.2607C57.9177 50.8912 57.493 48.6846 57.493 45.6563C57.493 40.3568 59.1007 37.7051 62.3085 37.7051C63.9882 37.7051 65.228 38.3405 66.0129 39.6073C66.8623 40.9845 67.2869 43.1682 67.2869 46.1623C67.2869 51.5037 65.6793 54.182 62.4715 54.182C60.7842 54.182 59.5519 53.5466 58.7633 52.2798L58.7708 52.2607ZM52.4843 50.6439C52.4843 52.4319 51.8321 53.9004 50.5278 55.0418C49.2234 56.1831 47.483 56.7537 45.2801 56.7537C43.2212 56.7537 41.2458 56.0994 39.3158 54.7945L40.2144 52.9836C41.8752 53.8205 43.3729 54.2314 44.7265 54.2314C45.9853 54.2314 46.975 53.9537 47.6954 53.3945C48.0554 53.1221 48.3462 52.7682 48.5439 52.3615C48.7416 51.9549 48.8406 51.5071 48.8329 51.0547C48.8329 49.7993 47.9608 48.7341 46.3759 47.84C44.9047 47.0297 41.9662 45.3405 41.9662 45.3405C40.3661 44.1726 39.5698 42.9209 39.5698 40.8628C39.5698 39.1508 40.1651 37.7812 41.3519 36.735C42.5463 35.6774 44.0819 35.1562 45.9778 35.1562C47.9191 35.1562 49.6936 35.6736 51.2861 36.716L50.4785 38.5269C49.206 37.966 47.8339 37.6684 46.4441 37.6519C45.3711 37.6519 44.5407 37.9106 43.9644 38.4356C43.6719 38.6787 43.4361 38.9832 43.2737 39.3276C43.1112 39.672 43.026 40.048 43.024 40.4291C43.024 41.6769 43.9113 42.7497 45.5493 43.6628C47.0394 44.4808 50.05 46.2118 50.05 46.2118C51.6918 47.3721 52.507 48.6085 52.507 50.6553L52.4843 50.6439ZM88.0577 28.3805C86.0291 28.3273 84.4556 28.5327 83.1399 29.0958C82.7607 29.2479 82.154 29.2479 82.101 29.7311C82.3095 29.9327 82.3398 30.2637 82.518 30.5452C82.8214 31.055 83.3446 31.736 83.83 32.0936C84.3608 32.5121 84.8916 32.9154 85.449 33.273C86.4348 33.8817 87.5534 34.2431 88.5203 34.8556C89.07 35.2132 89.6312 35.666 90.1886 36.0464C90.4654 36.2366 90.6436 36.579 91 36.7008V36.6247C90.8256 36.3964 90.7725 36.0654 90.6019 35.8105C90.3478 35.5556 90.0938 35.3274 89.8435 35.0763C89.0991 34.092 88.2107 33.2262 87.2083 32.5083C86.3969 31.9529 84.6224 31.1768 84.2888 30.2447L84.2395 30.1914C84.793 30.142 85.4528 29.9403 85.9836 29.7882C86.8443 29.5599 87.633 29.6094 88.524 29.3849C88.926 29.2822 89.3317 29.1566 89.7374 29.0273V28.799C89.2824 28.3425 88.9411 27.7224 88.471 27.2963C87.1586 26.1453 85.7591 25.0985 84.285 24.1653C83.4887 23.6555 82.4801 23.3283 81.6422 22.8946C81.3388 22.7424 80.8307 22.6663 80.6563 22.4114C80.2013 21.856 79.9359 21.1179 79.6136 20.456C78.8691 19.0068 78.1773 17.531 77.5396 16.0315C77.0846 15.0347 76.8078 14.0418 76.2504 13.1287C73.6342 8.80312 70.8018 6.18189 66.4452 3.61772C65.5086 3.08511 64.3863 2.85684 63.1995 2.57532C62.5663 2.54488 61.9331 2.49923 61.3037 2.4726C60.8866 2.29379 60.4847 1.81063 60.1283 1.57856C58.6874 0.66551 54.9564 -1.31278 53.8948 1.30465C53.2123 2.95576 54.9071 4.58404 55.4948 5.42101C55.9309 6.00308 56.4807 6.66885 56.784 7.32321C56.9622 7.76452 57.0115 8.21724 57.1897 8.67757C57.5916 9.79606 57.9746 11.0439 58.5054 12.0901C58.7822 12.6227 59.0855 13.182 59.442 13.6613C59.6467 13.9391 59.9955 14.0684 60.0752 14.5249C59.7188 15.0423 59.696 15.7956 59.4912 16.4271C58.5812 19.3071 58.9377 22.868 60.2268 24.987C60.6325 25.6186 61.5994 27.0186 62.8924 26.4822C64.0299 26.0256 63.7796 24.58 64.1057 23.3055C64.1815 23.0011 64.1323 22.7995 64.2877 22.5941V22.6511C64.6441 23.3663 65.0005 24.0473 65.3266 24.7626C66.1077 26.0104 67.4727 27.3039 68.614 28.1675C69.2207 28.624 69.7022 29.4153 70.4605 29.6969V29.6208H70.4037C70.2406 29.4001 70.0245 29.2936 69.8197 29.1148C69.339 28.6426 68.8953 28.1338 68.4927 27.593C67.4244 26.1284 66.4771 24.5787 65.6603 22.9593C65.2432 22.1604 64.8944 21.3006 64.5607 20.5131C64.409 20.2087 64.409 19.7522 64.155 19.6C63.7758 20.1554 63.2185 20.6386 62.9417 21.3234C62.4601 22.4191 62.4108 23.7658 62.2288 25.1658C62.1265 25.1925 62.1758 25.1658 62.1265 25.2191C61.315 25.0213 61.0382 24.1767 60.7349 23.4691C59.9766 21.662 59.8515 18.7592 60.5074 16.6782C60.6856 16.1456 61.444 14.4641 61.1406 13.9543C60.9814 13.4711 60.4809 13.1934 60.2041 12.8015C59.848 12.2915 59.5432 11.7474 59.2941 11.1771C58.6874 9.75422 58.3841 8.17919 57.7243 6.75635C57.421 6.09819 56.8902 5.40959 56.4579 4.80469C55.9764 4.1199 55.4455 3.63674 55.0626 2.82641C54.9375 2.54869 54.7593 2.08836 54.9602 1.784C55.0133 1.57857 55.1195 1.49867 55.3166 1.44161C55.6503 1.16769 56.5868 1.5253 56.9167 1.67748C57.8532 2.05792 58.6419 2.41553 59.4268 2.94815C59.7832 3.19924 60.1662 3.6824 60.6212 3.80794H61.152C61.9634 3.98675 62.8772 3.8612 63.6355 4.08566C64.9816 4.51937 66.1949 5.1509 67.2831 5.83569C70.6362 7.98484 73.3636 10.9851 75.1888 14.5325C75.4921 15.1184 75.6248 15.6548 75.9016 16.2635C76.4324 17.519 77.0884 18.7859 77.6268 19.9995C78.1576 21.1978 78.6695 22.4191 79.4316 23.412C79.8108 23.9446 81.335 24.2223 82.0175 24.5001C82.5218 24.7283 83.3067 24.9376 83.7617 25.2153C84.6338 25.7479 85.4831 26.3566 86.3021 26.9425C86.7192 27.2316 87.9818 27.8669 88.0577 28.3805Z" fill="white"/>
</svg>
